PathFileType	4	(X/Y/Z)	s09c0001.trc
DataRate	CameraRate	NumFrames	NumMarkers	Units	OrigDataRate	OrigDataStartFrame	OrigNumFrames
200	200	4	49	mm	200	250	2000
Frame#	Time	racr			lacr			c7			jug			rlel			rdr			llel			ldr			s2			lic			ric			lasi			rasi			rpsi			lpsi			rgt			lgt			rth1			rth2			rth3			rth4			rlfc			rmfc			rsh1			rsh2			rsh3			rsh4			rlmal			rmmal			rcal			rtoe			rmt5			rmt1			lth1			lth2			lth4			lth3			llfc			lmfc			llmal			lmmal			lcal			lmt1			lmt5			lsh1			lsh2			lsh3			lsh4			ltoe			
		X1	Y1	Z1	X2	Y2	Z2	X3	Y3	Z3	X4	Y4	Z4	X5	Y5	Z5	X6	Y6	Z6	X7	Y7	Z7	X8	Y8	Z8	X9	Y9	Z9	X10	Y10	Z10	X11	Y11	Z11	X12	Y12	Z12	X13	Y13	Z13	X14	Y14	Z14	X15	Y15	Z15	X16	Y16	Z16	X17	Y17	Z17	X18	Y18	Z18	X19	Y19	Z19	X20	Y20	Z20	X21	Y21	Z21	X22	Y22	Z22	X23	Y23	Z23	X24	Y24	Z24	X25	Y25	Z25	X26	Y26	Z26	X27	Y27	Z27	X28	Y28	Z28	X29	Y29	Z29	X30	Y30	Z30	X31	Y31	Z31	X32	Y32	Z32	X33	Y33	Z33	X34	Y34	Z34	X35	Y35	Z35	X36	Y36	Z36	X37	Y37	Z37	X38	Y38	Z38	X39	Y39	Z39	X40	Y40	Z40	X41	Y41	Z41	X42	Y42	Z42	X43	Y43	Z43	X44	Y44	Z44	X45	Y45	Z45	X46	Y46	Z46	X47	Y47	Z47	X48	Y48	Z48	X49	Y49	Z49	
250	1.2500	283.699219	1353.765625	381.586365	285.906250	1336.354492	-11.357096	232.401627	1402.906860	181.879379	356.091187	1351.267700	181.178696	296.834503	1093.406372	448.248993	358.955475	878.958984	578.542969	272.769135	1052.225464	-46.500065	395.858429	896.077148	-194.957916	221.726624	942.550903	184.584244	352.945251	990.864990	49.077404	340.801971	1002.744385	338.525452	409.968170	954.839172	79.988373	400.654938	966.018799	319.839783	225.880524	978.786011	245.006531	226.176773	974.929871	134.250122	326.325287	846.821167	386.796173	330.982361	836.886963	11.597816	349.339111	716.199341	382.482666	364.861938	630.801575	368.844910	332.856384	548.384155	359.173035	395.445404	629.320007	349.078705	319.246490	450.978241	335.419189	302.001923	431.066254	237.413834	278.390106	361.175720	368.481476	302.442200	274.032806	359.960876	279.360504	189.300735	361.463806	328.077942	276.878204	329.904144	276.809906	86.721817	360.398285	286.120911	93.526131	283.861420	219.189484	32.056438	318.037842	471.949463	86.031151	354.340118	388.191132	49.246994	407.103790	401.022736	39.268715	297.160614	341.359375	710.717285	9.891435	356.136536	629.448120	26.187469	391.865601	627.348755	40.185295	327.877136	543.730286	35.276100	309.939117	449.072418	47.601719	318.724609	428.936218	140.555862	268.772522	85.022163	21.841791	291.247711	96.154053	92.557251	218.722519	26.712597	68.100563	406.322327	43.934490	87.267792	381.435913	33.808411	-18.429020	278.887299	355.212708	17.889961	296.555847	270.411438	21.649055	274.800018	198.371414	14.678282	323.487244	270.337311	50.865356	472.643738	79.204597	36.615269	
251	1.2550	283.682739	1353.761353	381.588684	285.881012	1336.360840	-11.349068	232.368164	1402.896606	181.895752	356.046417	1351.258301	181.181656	296.812012	1093.400391	448.258057	358.940918	878.958008	578.546936	272.765991	1052.215942	-46.479885	395.832886	896.067566	-194.950073	221.687561	942.572754	184.565460	352.959686	990.866577	49.056049	340.758057	1002.753235	338.534393	409.928070	954.827271	79.976250	400.641724	966.022156	319.834625	225.867676	978.783508	245.011902	226.157364	974.922363	134.253021	326.318604	846.830139	386.799835	330.983124	836.879822	11.608090	349.335022	716.198975	382.478333	364.839844	630.789978	368.839020	332.952118	548.453247	359.206512	395.438416	629.308899	349.061676	319.240753	450.983276	335.413147	302.018188	431.075592	237.401306	278.385040	361.162567	368.465393	302.445679	274.022491	359.950836	279.356354	189.295731	361.461243	328.118866	276.898376	329.942902	276.789734	86.717659	360.389832	286.148224	93.521530	283.854370	219.172348	32.052414	318.051666	471.953308	86.033730	354.337128	388.189087	49.265148	407.115601	400.991760	39.264732	297.132507	341.339264	710.722595	9.888362	356.124451	629.468018	26.175112	391.872772	627.344055	40.217731	327.854736	543.748901	35.293598	309.923004	449.071289	47.601318	318.717438	428.940887	140.543472	268.775635	85.019066	21.845264	291.255432	96.152519	92.575241	218.718124	26.736420	68.094254	406.314087	43.923164	87.263969	381.445068	33.808910	-18.411839	278.868225	355.218597	17.898922	296.546173	270.383331	21.617941	274.822327	198.360611	14.605988	323.474152	270.320740	50.886002	472.632263	79.180016	36.628941	
252	1.2600	283.666046	1353.739502	381.594849	285.845642	1336.351440	-11.334913	232.340988	1402.907593	181.914459	356.048798	1351.244995	181.183212	296.801880	1093.390015	448.255951	358.959229	878.957825	578.545654	272.771393	1052.203003	-46.469917	395.819519	896.052002	-194.935104	221.680588	942.554443	184.587875	352.927612	990.867004	49.052540	340.760590	1002.751526	338.534485	409.928070	954.829224	79.976799	400.640930	966.028320	319.828949	225.853455	978.788086	245.015625	226.150345	974.918945	134.254196	326.310455	846.833801	386.797485	330.977692	836.886719	11.601637	349.330566	716.206482	382.495148	364.852478	630.795593	368.832764	332.948090	548.463318	359.208313	395.420837	629.304565	349.069550	319.233124	450.982513	335.406158	302.002930	431.071686	237.409912	278.384521	361.162079	368.466431	302.436462	274.020264	359.961273	279.349792	189.287628	361.448608	328.044647	276.865509	329.904663	276.803833	86.718063	360.398285	286.119354	93.531853	283.849854	219.187729	32.043827	318.044556	471.960999	86.029305	354.348633	388.214325	49.248741	407.100159	401.013062	39.255566	297.142639	341.328857	710.721863	9.889419	356.134003	629.451477	26.187859	391.842438	627.344055	40.173752	327.841248	543.746887	35.297680	309.924622	449.080231	47.595463	318.720856	428.959778	140.564041	268.746033	85.007111	21.844397	291.262390	96.157600	92.573425	218.717560	26.748810	68.114983	406.332336	43.929417	87.263863	381.481232	33.835732	-18.435102	278.855682	355.227448	17.889513	296.556305	270.410065	21.648924	274.836548	198.370590	14.723362	323.528015	270.365723	50.874641	472.639374	79.219872	36.627296	
253	1.2650	283.653137	1353.733276	381.588440	285.825623	1336.341675	-11.334336	232.316864	1402.893677	181.898178	356.030121	1351.248901	181.181473	296.793121	1093.383545	448.256622	358.956909	878.942383	578.537109	272.748688	1052.204102	-46.465145	395.822784	896.047852	-194.925293	221.644287	942.557495	184.550095	352.924500	990.863953	49.034264	340.757965	1002.753601	338.536072	409.904205	954.838684	79.955421	400.619812	966.028931	319.839966	225.855484	978.772949	245.007401	226.149719	974.926575	134.250046	326.291229	846.825012	386.793396	330.979645	836.872253	11.616917	349.308563	716.210205	382.489655	364.837311	630.802490	368.835938	332.938873	548.453735	359.202759	395.424683	629.323608	349.065887	319.208893	450.994720	335.399841	301.988922	431.052063	237.404221	278.379028	361.165680	368.469299	302.424194	274.021118	359.965027	279.340851	189.296616	361.465118	328.102631	276.901703	329.927643	276.810150	86.722252	360.416138	286.131317	93.519386	283.856262	219.189819	32.059193	318.037201	471.955261	86.041412	354.335175	388.190033	49.255100	407.106293	401.017822	39.262737	297.153992	341.324371	710.714355	9.891509	356.125977	629.440125	26.208052	391.862671	627.334290	40.215954	327.851288	543.731812	35.294128	309.909027	449.075928	47.595177	318.712585	428.925385	140.547623	268.766998	85.005966	21.846403	291.258484	96.158463	92.567795	218.722916	26.730206	68.106659	406.324280	43.934753	87.247551	381.481232	33.835743	-18.435141	278.859009	355.212646	17.902489	296.525238	270.400635	21.635843	274.799652	198.366852	14.715259	323.515045	270.356995	50.879032	472.615936	79.187347	36.629299	
